<?xml version="1.0" encoding="UTF-8" standalone="no"?>
<!-- Created with Inkscape (http://www.inkscape.org/) -->

<svg
   version="1.1"
   id="svg1"
   width="800"
   height="800"
   viewBox="0 0 800 800"
   xmlns="http://www.w3.org/2000/svg"
   xmlns:svg="http://www.w3.org/2000/svg">
  <defs
     id="defs1">
    <clipPath
       clipPathUnits="userSpaceOnUse"
       id="clipPath18">
      <path
         d="M 0,600 H 600 V 0 H 0 Z"
         transform="translate(-300.00023,-15.652298)"
         id="path18" />
    </clipPath>
    <clipPath
       clipPathUnits="userSpaceOnUse"
       id="clipPath20">
      <path
         d="M 0,600 H 600 V 0 H 0 Z"
         transform="translate(-300.00023,-589.34771)"
         id="path20" />
    </clipPath>
    <clipPath
       clipPathUnits="userSpaceOnUse"
       id="clipPath22">
      <path
         d="M 286.083,583.583 16.416,313.916 c -7.685,-7.686 -7.685,-20.146 0,-27.833 v 0 L 286.083,16.417 c 7.687,-7.686 20.147,-7.686 27.833,0 v 0 l 269.667,269.666 c 7.686,7.687 7.686,20.147 0,27.833 v 0 L 313.916,583.583 c -3.843,3.843 -8.879,5.765 -13.916,5.765 v 0 c -5.037,0 -10.074,-1.922 -13.917,-5.765"
         transform="translate(-172.467,-506.00002)"
         id="path22" />
    </clipPath>
  </defs>
  <g
     id="g16"
     transform="translate(-820)">
    <path
       id="path17"
       d="m 0,0 c -3.922,0 -7.608,1.527 -10.382,4.3 l -269.667,269.666 c -5.723,5.724 -5.723,15.039 10e-4,20.763 l 269.666,269.667 c 2.774,2.772 6.46,4.3 10.382,4.3 3.921,0 7.607,-1.528 10.38,-4.3 L 280.048,294.729 c 2.772,-2.773 4.3,-6.46 4.3,-10.381 0,-3.922 -1.528,-7.609 -4.3,-10.382 L 10.381,4.3 C 7.607,1.527 3.921,0 0,0"
       style="fill:#7847a8;fill-opacity:1;fill-rule:nonzero;stroke:none"
       transform="matrix(1.3333333,0,0,-1.3333333,1220.0003,779.13027)"
       clip-path="url(#clipPath18)" />
    <path
       id="path19"
       d="m 0,0 c -5.037,0 -10.074,-1.921 -13.917,-5.764 l -269.666,-269.667 c -7.687,-7.686 -7.687,-20.147 0,-27.834 l 269.666,-269.666 c 3.843,-3.842 8.88,-5.764 13.917,-5.764 5.037,0 10.073,1.922 13.917,5.764 l 269.666,269.666 c 7.687,7.687 7.687,20.148 0,27.834 L 13.917,-5.764 C 10.073,-1.921 5.037,0 0,0 m 0,-10 c 2.586,0 5.017,-1.007 6.846,-2.835 l 269.666,-269.667 c 3.775,-3.775 3.775,-9.917 0,-13.691 L 6.846,-565.86 c -1.829,-1.828 -4.26,-2.835 -6.846,-2.835 -2.586,0 -5.018,1.007 -6.846,2.836 l -269.667,269.666 c -3.774,3.774 -3.774,9.916 0,13.691 L -6.846,-12.835 C -5.018,-11.007 -2.586,-10 0,-10"
       style="fill:#ffffff;fill-opacity:1;fill-rule:nonzero;stroke:none"
       transform="matrix(1.3333333,0,0,-1.3333333,1220.0003,14.203067)"
       clip-path="url(#clipPath20)" />
    <path
       id="path21"
       d="m 0,0 46.435,-213.406 c 0.61,-3.462 4.17,-5.559 7.495,-4.415 l 53.345,18.357 c 3.59,1.236 7.367,-1.305 7.574,-5.096 l 10.976,-200.27 c 0.348,-6.348 9.238,-7.479 11.164,-1.42 l 94.394,296.981 c 1.345,4.232 -2.435,8.316 -6.758,7.303 l -71.009,-16.647 c -4.402,-1.032 -8.205,3.21 -6.7,7.474 l 46.785,132.513 c 0.645,1.825 -42.549,59.735 -42.549,59.735 -1.083,1.412 -2.76,2.239 -4.539,2.239 H 51.112 c -2.156,0 -4.129,-1.212 -5.103,-3.135 C 46.009,80.213 -0.216,1.22 0,0"
       style="fill:#ffffff;fill-opacity:1;fill-rule:nonzero;stroke:none"
       transform="matrix(1.3333333,0,0,-1.3333333,1049.956,125.33333)"
       clip-path="url(#clipPath22)" />
  </g>
</svg>
