<?xml version="1.0" encoding="UTF-8" standalone="no"?>
<!-- Created with Inkscape (http://www.inkscape.org/) -->

<svg
   version="1.1"
   id="svg1"
   width="800"
   height="800"
   viewBox="0 0 800 800"
   xmlns="http://www.w3.org/2000/svg"
   xmlns:svg="http://www.w3.org/2000/svg">
  <defs
     id="defs1">
    <clipPath
       clipPathUnits="userSpaceOnUse"
       id="clipPath74">
      <path
         d="M 0,600 H 600 V 0 H 0 Z"
         transform="translate(-300.00001,-15.652298)"
         id="path74" />
    </clipPath>
    <clipPath
       clipPathUnits="userSpaceOnUse"
       id="clipPath76">
      <path
         d="M 0,600 H 600 V 0 H 0 Z"
         transform="translate(-300.00001,-589.34751)"
         id="path76" />
    </clipPath>
    <clipPath
       clipPathUnits="userSpaceOnUse"
       id="clipPath78">
      <path
         d="M 0,600 H 600 V 0 H 0 Z"
         transform="translate(-475.35541,-323.37001)"
         id="path78" />
    </clipPath>
    <clipPath
       clipPathUnits="userSpaceOnUse"
       id="clipPath80">
      <path
         d="M 0,600 H 600 V 0 H 0 Z"
         transform="translate(-298.97161,-272.9452)"
         id="path80" />
    </clipPath>
    <clipPath
       clipPathUnits="userSpaceOnUse"
       id="clipPath82">
      <path
         d="M 0,600 H 600 V 0 H 0 Z"
         transform="translate(-232.15621,-304.99991)"
         id="path82" />
    </clipPath>
    <clipPath
       clipPathUnits="userSpaceOnUse"
       id="clipPath84">
      <path
         d="M 0,600 H 600 V 0 H 0 Z"
         transform="translate(-382.14248,-304.99991)"
         id="path84" />
    </clipPath>
  </defs>
  <g
     id="g72"
     transform="translate(-5740)">
    <path
       id="path73"
       d="m 0,0 c -3.922,0 -7.608,1.527 -10.382,4.3 l -269.666,269.666 c -5.723,5.724 -5.723,15.039 0,20.763 l 269.666,269.667 c 2.774,2.772 6.46,4.299 10.382,4.299 3.922,0 7.608,-1.527 10.382,-4.299 L 280.048,294.729 c 5.724,-5.724 5.724,-15.039 0,-20.763 L 10.382,4.3 C 7.608,1.527 3.922,0 0,0"
       style="fill:#747c5e;fill-opacity:1;fill-rule:nonzero;stroke:none"
       transform="matrix(1.3333333,0,0,-1.3333333,6140,779.13027)"
       clip-path="url(#clipPath74)" />
    <path
       id="path75"
       d="m 0,0 c -5.037,0 -10.073,-1.921 -13.917,-5.765 l -269.666,-269.666 c -7.687,-7.686 -7.687,-20.147 0,-27.834 l 269.666,-269.666 c 3.844,-3.842 8.88,-5.764 13.917,-5.764 5.037,0 10.073,1.922 13.917,5.764 l 269.666,269.666 c 7.687,7.687 7.687,20.148 0,27.834 L 13.917,-5.765 C 10.073,-1.921 5.037,0 0,0 m 0,-10 c 2.586,0 5.017,-1.007 6.846,-2.835 l 269.667,-269.667 c 3.774,-3.774 3.774,-9.917 0,-13.691 L 6.846,-565.859 c -1.828,-1.829 -4.26,-2.836 -6.846,-2.836 -2.586,0 -5.017,1.007 -6.846,2.836 l -269.667,269.666 c -3.774,3.774 -3.774,9.917 0,13.691 L -6.846,-12.835 C -5.017,-11.007 -2.586,-10 0,-10"
       style="fill:#ffffff;fill-opacity:1;fill-rule:nonzero;stroke:none"
       transform="matrix(1.3333333,0,0,-1.3333333,6140,14.203333)"
       clip-path="url(#clipPath76)" />
    <path
       id="path77"
       d="m 0,0 c -7.499,32.863 -24.952,95.097 -169.214,95.097 -144.261,0 -161.714,-62.234 -169.213,-95.097 -13.352,-58.51 12.708,-86.403 27.65,-96.87 18.397,-12.889 62.193,-15.086 62.193,-15.086 0,0 -5.897,-29.203 0,-35.998 12.975,-14.949 141.475,-15.949 158.741,0 6.61,6.105 0,35.998 0,35.998 0,0 43.796,2.197 62.194,15.086 C -12.709,-86.403 13.353,-58.51 0,0"
       style="fill:#ffffff;fill-opacity:1;fill-rule:nonzero;stroke:none"
       transform="matrix(1.3333333,0,0,-1.3333333,6373.8072,368.84)"
       clip-path="url(#clipPath78)" />
    <path
       id="path79"
       d="m 0,0 c -8.886,-1.687 -22.468,-37.379 -19.615,-44.226 2.852,-6.846 9.088,2.836 22.252,0 11.613,-2.503 11.58,-5.68 17.613,-5.753 4.268,-0.05 0.096,18.301 -3.416,36 C 14.167,-0.541 8.887,1.687 0,0"
       style="fill:#747c5e;fill-opacity:1;fill-rule:nonzero;stroke:none"
       transform="matrix(1.3333333,0,0,-1.3333333,6138.6288,436.07307)"
       clip-path="url(#clipPath80)" />
    <path
       id="path81"
       d="m 0,0 29.903,26.16 c 3.029,2.958 3.029,7.756 0,10.714 -3.026,2.96 -7.939,2.96 -10.966,0 L -7.07,7.07 -33.639,36.863 c -2.769,2.952 -7.266,2.952 -10.036,0 -2.772,-2.95 -2.772,-7.736 0,-10.686 L -14.141,0 -44.147,-26.162 c -3.102,-2.957 -3.102,-7.752 0,-10.709 1.548,-1.48 3.582,-2.219 5.614,-2.219 2.031,0 4.064,0.739 5.613,2.219 L -7.07,-7.07 19.409,-36.74 c 1.405,-1.434 3.249,-2.151 5.092,-2.151 1.843,0 3.687,0.717 5.093,2.151 2.812,2.865 2.812,7.512 0,10.379 z"
       style="fill:#747c5e;fill-opacity:1;fill-rule:nonzero;stroke:#747c60;stroke-width:5;stroke-linecap:butt;stroke-linejoin:miter;stroke-miterlimit:10;stroke-dasharray:none;stroke-opacity:1"
       transform="matrix(1.3333333,0,0,-1.3333333,6049.5416,393.33347)"
       clip-path="url(#clipPath82)" />
    <path
       id="path83"
       d="m 0,0 29.903,26.16 c 3.03,2.958 3.03,7.756 0,10.714 -3.026,2.96 -7.939,2.96 -10.965,0 L -7.07,7.07 -33.639,36.863 c -2.769,2.952 -7.266,2.952 -10.036,0 -2.772,-2.95 -2.772,-7.736 0,-10.686 L -14.141,0 -44.147,-26.162 c -3.102,-2.957 -3.102,-7.752 0,-10.709 1.549,-1.48 3.583,-2.219 5.614,-2.219 2.031,0 4.064,0.739 5.614,2.219 L -7.07,-7.07 19.409,-36.74 c 1.405,-1.434 3.25,-2.151 5.093,-2.151 1.842,0 3.686,0.717 5.092,2.151 2.813,2.865 2.813,7.512 0,10.379 z"
       style="fill:#747c5e;fill-opacity:1;fill-rule:nonzero;stroke:#747c60;stroke-width:5;stroke-linecap:butt;stroke-linejoin:miter;stroke-miterlimit:10;stroke-dasharray:none;stroke-opacity:1"
       transform="matrix(1.3333333,0,0,-1.3333333,6249.5233,393.33347)"
       clip-path="url(#clipPath84)" />
  </g>
</svg>
